Coordinates
version=1
nRows=19
nColumns=27
inDegrees=yes

Units are S.I. units (second, meters, Newtons, ...)
If the header above contains a line with 'inDegrees', this indicates whether rotational values are in degrees (yes) or radians (no).

endheader
time	pelvis_rotation	pelvis_tilt	pelvis_list	pelvis_tx	pelvis_ty	pelvis_tz	hip_flexion_r	hip_adduction_r	hip_rotation_r	knee_angle_r	knee_rotation_r	knee_adduction_r	knee_angle_r_beta	ankle_angle_r	subtalar_angle_r	mtp_angle_r	hip_flexion_l	hip_adduction_l	hip_rotation_l	knee_angle_l	knee_rotation_l	knee_adduction_l	knee_angle_l_beta	ankle_angle_l	subtalar_angle_l	mtp_angle_l
      5.24500000	     12.82424901	    -27.84713545	      5.15621491	     -0.03809968	      0.66168840	     -1.18671852	     85.80699115	    -45.99611320	     -2.31551169	     77.41110694	      0.00000000	   -707.95732957	      1.35107869	     11.48701312	      0.00000000	      0.00000000	     88.21056015	    -16.61476832	      6.37495550	     71.36696181	      0.00000000	     -9.65554081	      1.24558846	      8.15012019	      0.00000000	      0.00000000
      5.25000000	     13.64536402	    -27.74440966	      5.52331081	     -0.03718054	      0.66180750	     -1.18706707	     85.62476838	    -47.06772154	     -2.69128031	     77.49355313	      0.00000000	   -707.66364321	      1.35251765	     11.56718270	      0.00000000	      0.00000000	     88.09098527	    -15.81946330	      6.39385397	     71.29594152	      0.00000000	     -9.83539415	      1.24434892	      8.24268224	      0.00000000	      0.00000000
      5.25500000	     13.65809267	    -27.76129900	      5.35203077	     -0.03673700	      0.66214874	     -1.18699798	     85.29199086	    -47.06292403	     -3.07127845	     77.41016239	      0.00000000	   -707.65662011	      1.35106221	     11.59107211	      0.00000000	      0.00000000	     88.12788457	    -15.83919407	      6.56490765	     71.28169485	      0.00000000	     -9.83593337	      1.24410027	      8.23446403	      0.00000000	      0.00000000
      5.26000000	     12.72365044	    -27.69825877	      5.59959441	     -0.03688785	      0.66243290	     -1.18668676	     86.07476525	    -45.96021102	     -1.62977979	     77.42553526	      0.00000000	   -707.94269747	      1.35133052	     11.52819694	      0.00000000	      0.00000000	     87.62225693	    -16.76842929	      5.70553427	     71.16788440	      0.00000000	     -9.65900935	      1.24211390	      8.24821207	      0.00000000	      0.00000000
      5.26500000	     13.68662893	    -27.59724119	      5.49652249	     -0.03586241	      0.66274559	     -1.18697248	     85.11784594	    -47.14240087	     -3.00023616	     77.36325647	      0.00000000	   -707.60629615	      1.35024355	     11.61660988	      0.00000000	      0.00000000	     87.75819445	    -15.85032120	      6.34142259	     71.15324701	      0.00000000	     -9.83699344	      1.24185843	      8.28125940	      0.00000000	      0.00000000
      5.27000000	     13.69895208	    -27.59320634	      5.34411853	     -0.03547231	      0.66307167	     -1.18690236	     84.79630642	    -47.13572172	     -3.34094725	     77.28375743	      0.00000000	   -707.60100500	      1.34885603	     11.63668020	      0.00000000	      0.00000000	     87.77089421	    -15.87135325	      6.48552779	     71.13624959	      0.00000000	     -9.83739797	      1.24156177	      8.27477503	      0.00000000	      0.00000000
      5.27500000	     13.73073101	    -27.55068767	      5.34548916	     -0.03505861	      0.66340927	     -1.18688264	     84.63339700	    -47.17932008	     -3.44970108	     77.23556414	      0.00000000	   -707.57445529	      1.34801489	     11.64976366	      0.00000000	      0.00000000	     87.66085227	    -15.86322507	      6.46566446	     71.07660717	      0.00000000	     -9.83790918	      1.24052082	      8.28824638	      0.00000000	      0.00000000
      5.28000000	     13.75164385	    -27.51569852	      5.22768442	     -0.03466052	      0.66372411	     -1.18683710	     84.32389312	    -47.19694573	     -3.74994250	     77.16558499	      0.00000000	   -707.54726441	      1.34679353	     11.66602912	      0.00000000	      0.00000000	     87.62485268	    -15.87269950	      6.57254415	     71.05032184	      0.00000000	     -9.83840963	      1.24006205	      8.28797122	      0.00000000	      0.00000000
      5.28500000	     13.76818204	    -27.45119445	      5.16668744	     -0.03422895	      0.66409631	     -1.18680360	     84.04870486	    -47.22493711	     -3.97256368	     77.09091702	      0.00000000	   -707.52516514	      1.34549033	     11.69573545	      0.00000000	      0.00000000	     87.51718219	    -15.88135698	      6.61054671	     70.99675935	      0.00000000	     -9.83962154	      1.23912721	      8.28791411	      0.00000000	      0.00000000
      5.29000000	     13.73878053	    -27.38325130	      5.29958215	     -0.03387463	      0.66436010	     -1.18677788	     84.09742418	    -47.22099669	     -3.78036358	     77.08756026	      0.00000000	   -707.51319916	      1.34543174	     11.68572624	      0.00000000	      0.00000000	     87.31575565	    -15.93197028	      6.40320513	     70.92651263	      0.00000000	     -9.84001955	      1.23790117	      8.28473824	      0.00000000	      0.00000000
      5.29500000	     13.34566230	    -27.09390409	      4.99228528	     -0.03354863	      0.66489601	     -1.18662018	     83.44234538	    -46.73191345	     -3.98555763	     76.89867890	      0.00000000	   -707.57885278	      1.34213514	     11.81067650	      0.00000000	      0.00000000	     86.93643930	    -16.30388428	      6.50845419	     70.86620896	      0.00000000	     -9.66385995	      1.23684867	      8.35637127	      0.00000000	      0.00000000
      5.30000000	     13.71507128	    -27.29890658	      5.44024587	     -0.03322313	      0.66485584	     -1.18676449	     84.07388387	    -47.23318055	     -3.62673999	     77.05165607	      0.00000000	   -707.46566645	      1.34480509	     11.70077878	      0.00000000	      0.00000000	     87.04442754	    -15.99095474	      6.16176128	     70.81462715	      0.00000000	     -9.84082292	      1.23594840	      8.31419531	      0.00000000	      0.00000000
      5.30500000	     13.74065254	    -27.23771490	      5.33553564	     -0.03281077	      0.66517762	     -1.18673172	     83.74411521	    -47.26867535	     -3.92977472	     76.97713555	      0.00000000	   -707.44343538	      1.34350446	     11.73537809	      0.00000000	      0.00000000	     86.97002607	    -15.99032046	      6.26114573	     70.77694876	      0.00000000	     -9.84163097	      1.23529079	      8.31207339	      0.00000000	      0.00000000
      5.31000000	     13.76810895	    -27.20905295	      5.21351689	     -0.03239378	      0.66549246	     -1.18669632	     83.42317542	    -47.30526491	     -4.26908056	     76.90143095	      0.00000000	   -707.39794463	      1.34218317	     11.74457857	      0.00000000	      0.00000000	     86.94743723	    -15.99094605	      6.38505126	     70.75853879	      0.00000000	     -9.84194872	      1.23496948	      8.30421940	      0.00000000	      0.00000000
      5.31500000	     13.72241974	    -27.16298785	      5.28714373	     -0.03207944	      0.66571738	     -1.18668853	     83.44007854	    -47.28057657	     -4.14926280	     76.88921615	      0.00000000	   -707.38517345	      1.34196998	     11.75189561	      0.00000000	      0.00000000	     86.80081428	    -16.04751878	      6.24524644	     70.70885818	      0.00000000	     -9.84229777	      1.23410239	      8.33639592	      0.00000000	      0.00000000
      5.32000000	     13.73336808	    -27.12692686	      5.19074274	     -0.03167462	      0.66605333	     -1.18666582	     83.15639377	    -47.30058474	     -4.42431798	     76.81373859	      0.00000000	   -707.35706259	      1.34065265	     11.74631668	      0.00000000	      0.00000000	     86.74601458	    -16.05794832	      6.33159014	     70.67558179	      0.00000000	     -9.84277381	      1.23352160	      8.33053758	      0.00000000	      0.00000000
      5.32500000	     13.32479730	    -26.65957747	      5.00366933	     -0.03118770	      0.66672723	     -1.18654958	     82.44224316	    -46.85173339	     -4.48443473	     76.61515141	      0.00000000	   -707.37405182	      1.33718665	     11.83952684	      0.00000000	      0.00000000	     86.07613760	    -16.43065338	      6.26386768	     70.54922168	      0.00000000	     -9.66971259	      1.23131620	      8.44352393	      0.00000000	      0.00000000
      5.33000000	     13.72995885	    -27.02260139	      5.11377439	     -0.03085999	      0.66667302	     -1.18664510	     82.74576985	    -47.34100917	     -4.74941420	     76.70387456	      0.00000000	   -707.28007293	      1.33873516	     11.77671368	      0.00000000	      0.00000000	     86.54071724	    -16.09152153	      6.35990654	     70.59240848	      0.00000000	     -9.84345568	      1.23206995	      8.35429724	      0.00000000	      0.00000000
      5.33500000	     12.92068478	    -27.08508192	      4.91122192	     -0.03105137	      0.66708516	     -1.18630904	     82.99557430	    -46.32418632	     -4.16492748	     76.58869819	      0.00000000	   -707.53258789	      1.33672495	     11.73314464	      0.00000000	      0.00000000	     86.42217650	    -16.89284285	      6.10808513	     70.54889796	      0.00000000	     -9.67263233	      1.23131055	      8.30411316	      0.00000000	      0.00000000
